<?xml version="1.0" encoding="UTF-8" standalone="no"?>
<!-- Generator: Adobe Illustrator 25.3.1, SVG Export Plug-In . SVG Version: 6.00 Build 0)  -->

<svg
   version="1.1"
   id="Layer_1"
   x="0px"
   y="0px"
   viewBox="0 0 90 90"
   style="enable-background:new 0 0 90 90;"
   xml:space="preserve"
   sodipodi:docname="cell.svg"
   inkscape:version="1.2.2 (732a01da63, 2022-12-09)"
   xmlns:inkscape="http://www.inkscape.org/namespaces/inkscape"
   xmlns:sodipodi="http://sodipodi.sourceforge.net/DTD/sodipodi-0.dtd"
   xmlns="http://www.w3.org/2000/svg"
   xmlns:svg="http://www.w3.org/2000/svg"><defs
   id="defs16" /><sodipodi:namedview
   id="namedview14"
   pagecolor="#ffffff"
   bordercolor="#000000"
   borderopacity="0.25"
   inkscape:showpageshadow="2"
   inkscape:pageopacity="0.0"
   inkscape:pagecheckerboard="0"
   inkscape:deskcolor="#d1d1d1"
   showgrid="false"
   inkscape:zoom="9.0444444"
   inkscape:cx="42.291155"
   inkscape:cy="45.608108"
   inkscape:window-width="1920"
   inkscape:window-height="1001"
   inkscape:window-x="-9"
   inkscape:window-y="-9"
   inkscape:window-maximized="1"
   inkscape:current-layer="Layer_1" />
<style
   type="text/css"
   id="style2">
	.st0{fill:#FFFFFF;}
</style>
<path
   id="Path_24"
   class="st0"
   d="M36,81.8c-17.1,0-31-13.9-31-31l0,0c0-17.1,13.9-31,31-31s31,13.9,31,31  C67.1,67.9,53.2,81.8,36,81.8z M36,21.9c-16,0-28.9,12.9-28.9,28.9l0,0c0,16,12.9,28.9,28.9,28.9l0,0c16,0,28.9-12.9,28.9-28.9l0,0  C64.9,34.8,52,21.9,36,21.9z"
   style="fill:#96a8fc;fill-opacity:1" />
<path
   id="Path_25"
   class="st0"
   d="M36,76.5c-14.2,0-25.7-11.5-25.7-25.7S21.9,25.1,36,25.1c14.2,0,25.7,11.5,25.7,25.7l0,0  C61.7,65,50.2,76.5,36,76.5z M36,27.3c-13,0-23.6,10.5-23.6,23.6S23,74.4,36,74.4s23.6-10.5,23.6-23.6C59.6,37.8,49,27.3,36,27.3z"
   style="fill:#96a8fc;fill-opacity:1" />
<path
   id="Path_26"
   class="st0"
   d="M36,62.6c-6.5,0-11.8-5.3-11.8-11.8C24.3,44.3,29.5,39,36,39s11.8,5.3,11.8,11.8l0,0  C47.8,57.3,42.5,62.6,36,62.6L36,62.6z M36,41.2c-5.3,0-9.6,4.3-9.6,9.6s4.3,9.6,9.6,9.6l0,0c5.3,0,9.6-4.3,9.6-9.6  C45.7,45.5,41.4,41.2,36,41.2z"
   style="fill:#96a8fc;fill-opacity:1" />
<path
   id="Path_27"
   class="st0"
   d="M20.2,60.4c-1.2,0-2.4-0.7-2.8-1.9c-2.2-4.9-2.2-10.6,0-15.5c0.6-1.6,2.4-2.3,4-1.7l0,0  c0.6,0.2,1,0.6,1.4,1.1c0.6,0.8,0.7,1.8,0.4,2.8c-1.3,3.6-1.3,7.5,0,11.1c0.6,1.6-0.3,3.3-1.9,3.9l0,0  C20.9,60.4,20.5,60.4,20.2,60.4z M20.2,43.3c-0.4,0-0.7,0.2-0.9,0.6c-2,4.4-2,9.4,0,13.8l0,0c0.2,0.5,0.8,0.7,1.3,0.5l0,0  c0.1-0.1,0.2-0.1,0.3-0.3c0.2-0.2,0.2-0.6,0.1-0.8c-1.4-4.1-1.4-8.5,0-12.5c0.1-0.3,0.1-0.6-0.1-0.8C20.8,43.5,20.5,43.3,20.2,43.3z  "
   style="fill:#96a8fc;fill-opacity:1" />
<path
   id="Path_28"
   class="st0"
   d="M44.2,68.9c-1.7,0-3-1.3-3-3c0-1.2,0.7-2.3,1.8-2.8c2.2-0.9,3.9-2.6,4.8-4.8  c0.7-1.5,2.4-2.2,3.9-1.5c0.3,0.2,0.7,0.4,0.9,0.6c0.8,0.8,1,1.9,0.8,2.9l0,0c-1.1,4.1-4.3,7.3-8.5,8.3  C44.7,68.8,44.4,68.9,44.2,68.9z M50.6,58.7L50.6,58.7c-0.4,0-0.6,0.2-0.7,0.5c-1.1,2.7-3.3,4.8-6,5.9c-0.4,0.2-0.6,0.7-0.5,1.1l0,0  c0,0.1,0.1,0.2,0.2,0.3c0.2,0.2,0.6,0.3,0.9,0.2c3.4-0.8,6.1-3.4,7-6.8c0.1-0.3,0-0.6-0.2-0.9C51,58.8,50.8,58.7,50.6,58.7  L50.6,58.7z"
   style="fill:#96a8fc;fill-opacity:1" />
<path
   id="Path_29"
   class="st0"
   d="M51.5,45.8H51c-1-0.1-1.9-0.8-2.3-1.7c-1.4-2.7-3.7-4.9-6.5-6c-0.9-0.4-1.6-1.2-1.9-2.1  c-0.2-1,0-2,0.7-2.7c0.8-0.9,2-1.2,3.1-0.8c4.6,1.3,8.4,4.7,10.1,9.2c0.4,1.1,0.2,2.3-0.6,3.2C53.1,45.5,52.3,45.8,51.5,45.8z   M43.3,34.4c-0.3,0-0.5,0.1-0.7,0.3s-0.3,0.5-0.2,0.8s0.3,0.6,0.6,0.7c3.3,1.3,6,3.8,7.6,7c0.1,0.3,0.4,0.5,0.7,0.5s0.6-0.1,0.7-0.3  c0.2-0.3,0.3-0.6,0.2-1c-1.4-3.9-4.7-6.9-8.7-8l0,0C43.5,34.4,43.4,34.4,43.3,34.4L43.3,34.4z"
   style="fill:#96a8fc;fill-opacity:1" />
<path
   id="Path_30"
   class="st0"
   d="M29.6,71.1c-2.4,0-4.3-1.9-4.3-4.3l0,0c0-2.4,1.9-4.3,4.3-4.3l0,0c2.4,0,4.3,1.9,4.3,4.3l0,0  C33.9,69.2,32,71.1,29.6,71.1z M29.6,64.7c-1.2,0-2.1,1-2.1,2.1l0,0c0,1.2,1,2.1,2.1,2.1l0,0c1.2,0,2.1-1,2.1-2.1  S30.8,64.7,29.6,64.7z"
   style="fill:#96a8fc;fill-opacity:1" />
<path
   id="Path_31"
   class="st0"
   d="M29.6,38c-1.8,0-3.2-1.4-3.2-3.2s1.4-3.2,3.2-3.2l0,0c1.8,0,3.2,1.4,3.2,3.2  C32.8,36.5,31.4,38,29.6,38z M29.6,33.7c-0.6,0-1.1,0.5-1.1,1.1s0.5,1.1,1.1,1.1s1.1-0.5,1.1-1.1S30.2,33.7,29.6,33.7z"
   style="fill:#96a8fc;fill-opacity:1" />
<path
   id="Path_32"
   class="st0"
   d="M53.2,54c-1.8,0-3.2-1.4-3.2-3.2s1.4-3.2,3.2-3.2l0,0c1.8,0,3.2,1.4,3.2,3.2S54.9,54,53.2,54z   M53.2,49.7c-0.6,0-1.1,0.5-1.1,1.1l0,0c0,0.6,0.5,1.1,1.1,1.1s1.1-0.5,1.1-1.1C54.2,50.2,53.8,49.7,53.2,49.7z"
   style="fill:#96a8fc;fill-opacity:1" />
</svg>
